ply
format ascii 1.0
element vertex 1153
property float x
property float y
property float z
end_header
85446.703125 446898 6.75600004196166992
85446.703125 446898 6.96000003814697266
85446.703125 446898 6.54799985885620117
85449.203125 446897 6.48600006103515625
85449.203125 446897 6.28900003433227539
85447.203125 446897 5.75099992752075195
85446.5 446897 5.74399995803833008
85446.3984375 446899 7.11100006103515625
85446.3984375 446899 7.31300020217895508
85445.796875 446897 6.10699987411499023
85445.203125 446897 5.84600019454956055
85445.203125 446897 5.64400005340576172
85445 446899 7.01599979400634766
85445 446899 7.22399997711181641
85445 446899 7.45200014114379883
85444.796875 446898 6.19199991226196289
85444.796875 446900 6.71199989318847656
85444.703125 446900 7.21700000762939453
85444.703125 446900 6.94299983978271484
85444.203125 446898 6.59100008010864258
85444.203125 446898 6.78700017929077148
85444 446900 7.07700014114379883
85444 446900 6.82499980926513672
85444 446900 7.33199977874755859
85443.5 446898 6.28700017929077148
85443.5 446898 6.71899986267089844
85443.5 446898 6.50500011444091797
85443.5 446901 6.64499998092651367
85443.3984375 446900 7.40100002288818359
85443.3984375 446900 7.63600015640258789
85443.3984375 446900 7.13199996948242188
85443.3984375 446900 6.91099977493286133
85443.5 446901 6.37599992752075195
85442.796875 446898 6.2369999885559082
85442.796875 446898 6.05000019073486328
85442.8984375 446899 6.82100009918212891
85442.796875 446898 6.43900012969970703
85442.8984375 446899 7.15899991989135742
85442.6015625 446900 6.90700006484985352
85442.703125 446901 6.42299985885620117
85442.6015625 446900 7.17199993133544922
85442.703125 446901 6.64200019836425781
85442.6015625 446900 7.43300008773803711
85442.1015625 446900 7.20300006866455078
85442.1015625 446900 7.47300004959106445
85449 446901 6.42000007629394531
85448.6015625 446901 6.45499992370605469
85448.6015625 446901 6.17399978637695312
85447.6015625 446900 6.76200008392333984
85447.6015625 446900 7.01900005340576172
85446.203125 446901 6.08099985122680664
85445.8984375 446898 6.90899991989135742
85445.8984375 446898 6.50500011444091797
85445.8984375 446898 6.7090001106262207
85444.8984375 446898 6.79600000381469727
85444.8984375 446898 6.58599996566772461
85444.703125 446896 5.18800020217895508
85444.703125 446896 5.39300012588500977
85444.8984375 446898 6.39300012588500977
85444.296875 446896 5.35900020599365234
85444.296875 446896 5.17500019073486328
85444.5 446898 6.58799982070922852
85444.5 446898 6.17600011825561523
85444.296875 446896 4.98299980163574219
85444.5 446898 6.39699983596801758
85444.3984375 446900 7.00799989700317383
85444 446896 5.38600015640258789
85444.203125 446899 6.9850001335144043
85444.3984375 446900 6.75199985504150391
85444 446900 7.07700014114379883
85444 446900 6.82499980926513672
85443.6015625 446896 5.11299991607666016
85443.5 446896 4.92999982833862305
85443.6015625 446896 5.32600021362304688
85443.8984375 446899 6.97900009155273438
85443.703125 446898 6.1100001335144043
85444 446900 7.33199977874755859
85443.8984375 446899 7.15600013732910156
85443.3984375 446897 5.8899998664855957
85443.5 446898 6.28700017929077148
85443.296875 446896 5.28399991989135742
85443.5 446898 6.71899986267089844
85443.5 446898 6.50500011444091797
85443.703125 446903 4.82600021362304688
85443 446896 5.25699996948242188
85443 446897 5.45499992370605469
85443.1015625 446898 6.09600019454956055
85443 446896 5.08500003814697266
85442.796875 446898 6.2369999885559082
85442.796875 446898 6.05000019073486328
85442.796875 446898 6.43900012969970703
85442.1015625 446896 4.69199991226196289
85442.1015625 446896 2.55800008773803711
85442.203125 446901 6.73899984359741211
85442.203125 446901 6.46500015258789062
85441.8984375 446898 6.01999998092651367
85441.8984375 446898 6.43599987030029297
85441.8984375 446898 6.21899986267089844
85441.796875 446897 5.80499982833862305
85441.796875 446897 5.61100006103515625
85441.203125 446896 4.6529998779296875
85441.203125 446896 4.98899984359741211
85441.203125 446900 7.00600004196166992
85441.203125 446900 7.3880000114440918
85440.703125 446896 2.55100011825561523
85440.8984375 446898 5.96600008010864258
85440.703125 446896 4.65999984741210938
85441.203125 446900 7.27899980545043945
85440.703125 446896 2.5969998836517334
85440.3984375 446896 7.27299976348876953
85440.296875 446896 4.68900012969970703
85440.3984375 446896 5.16499996185302734
85440.296875 446896 2.7070000171661377
85440.3984375 446896 7.8899998664855957
85440.296875 446896 2.54900002479553223
85446.5 446899 7.34299993515014648
85445.296875 446898 6.43699979782104492
85444.796875 446898 6.19199991226196289
85444.5 446898 6.58799982070922852
85444.5 446898 6.17600011825561523
85444.5 446898 6.39699983596801758
85444.296875 446899 7.46199989318847656
85444.296875 446899 7.20100021362304688
85444.203125 446899 6.9850001335144043
85444.1015625 446898 6.39300012588500977
85444.1015625 446898 6.17899990081787109
85443.8984375 446898 6.75199985504150391
85443.5 446898 6.28700017929077148
85443.5 446898 6.71899986267089844
85443.5 446898 6.50500011444091797
85443.296875 446899 7.17299985885620117
85443.296875 446899 6.88299989700317383
85443.203125 446898 6.2779998779296875
85443.203125 446898 6.71500015258789062
85443.296875 446899 7.28499984741210938
85443.203125 446898 6.49700021743774414
85442.796875 446898 6.2369999885559082
85442.796875 446898 6.05000019073486328
85443 446899 7.25899982452392578
85442.796875 446898 6.43900012969970703
85442.5 446899 7.21299982070922852
85442.5 446899 6.92100000381469727
85442.3984375 446898 6.66900014877319336
85442.3984375 446898 6.41699981689453125
85442.5 446899 6.74100017547607422
85442.3984375 446898 6.21099996566772461
85449.1015625 446896 5.70499992370605469
85449.1015625 446896 5.90100002288818359
85449 446896 5.28200006484985352
85448.296875 446897 6.25400018692016602
85448.296875 446897 6.47399997711181641
85447.5 446896 5.62300014495849609
85447.5 446896 5.1939997673034668
85449.8984375 446899 7.05299997329711914
85449.3984375 446899 7.11399984359741211
85449.3984375 446899 7.3600001335144043
85448.8984375 446899 7.30999994277954102
85448.8984375 446899 7.43800020217895508
85449 446899 7.17500019073486328
85448.5 446899 7.20699977874755859
85448.5 446899 7.26999998092651367
85448.5 446899 7.49599981307983398
85448.1015625 446899 7.21099996566772461
85448.1015625 446899 7.47100019454956055
85446.3984375 446895 4.7090001106262207
85446.3984375 446895 4.90500020980834961
85449.296875 446899 7.32299995422363281
85447.203125 446899 7.28800010681152344
85443.3984375 446897 5.8899998664855957
85443.296875 446899 7.17299985885620117
85443.3984375 446900 7.40100002288818359
85443.296875 446899 6.88299989700317383
85443.3984375 446900 7.63600015640258789
85443.3984375 446900 7.13199996948242188
85443.203125 446899 5.17600011825561523
85443.203125 446899 5.14099979400634766
85443.3984375 446900 6.91099977493286133
85443.296875 446899 7.28499984741210938
85443 446899 7.25899982452392578
85448.703125 446897 6.27500009536743164
85448.703125 446897 6.07299995422363281
85448.703125 446897 6.48600006103515625
85446.3984375 446899 7.11100006103515625
85446.3984375 446899 7.31300020217895508
85446 446899 7.40199995040893555
85446 446899 7.30800008773803711
85446 446899 7.12599992752075195
85445.5 446899 7.06199979782104492
85445.5 446899 7.42700004577636719
85445.5 446899 7.26399993896484375
85445.1015625 446900 6.7220001220703125
85445.1015625 446900 7.19199991226196289
85445.1015625 446900 6.95100021362304688
85444.796875 446900 6.71199989318847656
85443.703125 446901 6.52899980545043945
85447.1015625 446895 4.93400001525878906
85445.5 446895 2.5409998893737793
85445.5 446895 2.53999996185302734
85445.5 446895 2.52399992942810059
85445.1015625 446895 4.76900005340576172
85444.703125 446899 7.43599987030029297
85444.296875 446899 7.46199989318847656
85444.296875 446899 7.20100021362304688
85444 446899 7.34999990463256836
85443.8984375 446899 6.97900009155273438
85443.8984375 446899 7.15600013732910156
85443.6015625 446899 7.11100006103515625
85443.6015625 446899 6.91200017929077148
85443.6015625 446899 7.3189997673034668
85443.296875 446899 7.17299985885620117
85443.296875 446899 6.88299989700317383
85443.203125 446899 5.17600011825561523
85443.203125 446899 5.14099979400634766
85443.296875 446899 7.28499984741210938
85442 446899 7.01900005340576172
85442.1015625 446899 7.21299982070922852
85442 446899 6.8189997673034668
85441.796875 446901 6.44500017166137695
85441.6015625 446899 7.23000001907348633
85441.6015625 446899 6.98999977111816406
85440.703125 446899 6.7369999885559082
85440.703125 446899 7.16499996185302734
85440.703125 446899 6.94299983978271484
85444.296875 446899 7.46199989318847656
85444.296875 446899 7.20100021362304688
85444.203125 446898 6.59100008010864258
85444.203125 446899 6.9850001335144043
85444.203125 446898 6.78700017929077148
85443.8984375 446899 6.97900009155273438
85443.8984375 446899 7.15600013732910156
85443.703125 446900 6.77299976348876953
85443.703125 446900 7.33300018310546875
85443.703125 446900 7.04699993133544922
85443.296875 446899 7.17299985885620117
85443.3984375 446900 7.40100002288818359
85443.296875 446899 6.88299989700317383
85443.3984375 446900 7.63600015640258789
85443.3984375 446900 7.13199996948242188
85443.203125 446898 6.2779998779296875
85443.203125 446899 5.17600011825561523
85443.203125 446899 5.14099979400634766
85443.203125 446898 6.71500015258789062
85443.3984375 446900 6.91099977493286133
85443.296875 446899 7.28499984741210938
85443.203125 446898 6.49700021743774414
85443.1015625 446900 6.86100006103515625
85443 446900 7.39699983596801758
85443 446900 7.12900018692016602
85442.8984375 446899 6.82100009918212891
85442.8984375 446899 7.15899991989135742
85442.6015625 446900 6.90700006484985352
85442.703125 446901 6.42299985885620117
85442.6015625 446900 7.17199993133544922
85442.703125 446901 6.64200019836425781
85442.6015625 446900 7.43300008773803711
85442.1015625 446900 7.20300006866455078
85442.1015625 446900 7.47300004959106445
85441.703125 446900 7.26000022888183594
85441.703125 446901 6.72300004959106445
85441.703125 446900 6.99300003051757812
85441.6015625 446900 7.4720001220703125
85441.296875 446901 6.73099994659423828
85441.296875 446901 6.46799993515014648
85440.8984375 446901 6.77899980545043945
85440.8984375 446901 6.51900005340576172
85439.203125 446903 5.43300008773803711
85439.203125 446903 5.67199993133544922
85435.296875 446899 6.39900016784667969
85435.296875 446899 6.5840001106262207
85433.8984375 446900 7.34200000762939453
85433.3984375 446900 7.30299997329711914
85433.3984375 446900 7.16400003433227539
85432.8984375 446900 6.80900001525878906
85432.8984375 446900 7.0149998664855957
85439.6015625 446903 5.40899991989135742
85439.6015625 446903 5.64400005340576172
85439.203125 446903 5.43300008773803711
85439.203125 446903 5.67199993133544922
85437 446898 5.98799991607666016
85437 446898 6.19600009918212891
85436.703125 446898 6.14900016784667969
85436.703125 446898 6.36800003051757812
85435.703125 446899 6.83599996566772461
85435.296875 446899 6.39900016784667969
85435.296875 446899 6.5840001106262207
85435 446899 6.75199985504150391
85433.8984375 446900 7.34200000762939453
85433.3984375 446900 7.30299997329711914
85433.3984375 446900 7.16400003433227539
85432.8984375 446900 6.80900001525878906
85432.8984375 446900 7.0149998664855957
85431.296875 446902 6.75099992752075195
85431.296875 446902 6.48600006103515625
85437.5 446894 2.4590001106262207
85437.5 446894 2.47099995613098145
85437.296875 446892 2.44700002670288086
85437.5 446894 2.46799993515014648
85437.296875 446892 2.4570000171661377
85437.296875 446892 2.46300005912780762
85436.796875 446892 2.46799993515014648
85436.796875 446892 2.45799994468688965
85436.5 446893 2.46499991416931152
85436.296875 446892 2.50799989700317383
85436.3984375 446892 2.49900007247924805
85435.8984375 446895 2.48099994659423828
85435.8984375 446895 2.50200009346008301
85434.8984375 446895 2.53999996185302734
85429.703125 446899 5.96500015258789062
85429.703125 446899 6.1810002326965332
85429.703125 446899 5.76399993896484375
85435.8984375 446898 6.26000022888183594
85435.8984375 446898 6.06300020217895508
85434.5 446899 6.30900001525878906
85434.5 446899 6.51900005340576172
85433.796875 446900 7.01399993896484375
85433.796875 446900 6.7350001335144043
85433.796875 446900 5.92799997329711914
85433.796875 446900 7.17399978637695312
85433.796875 446900 6.03200006484985352
85432.8984375 446900 6.80900001525878906
85432.8984375 446900 7.0149998664855957
85432.5 446900 6.59999990463256836
85432.5 446900 6.81099987030029297
85432.5 446900 7.0149998664855957
85432.203125 446900 6.80700016021728516
85431.8984375 446898 5.42500019073486328
85432.203125 446900 7.2090001106262207
85432.203125 446900 7.00199985504150391
85431.796875 446900 6.58900022506713867
85431.796875 446900 6.78100013732910156
85431.796875 446900 6.99100017547607422
85431.5 446900 6.9869999885559082
85436.203125 446898 5.93599987030029297
85435.8984375 446898 6.26000022888183594
85435.8984375 446898 6.06300020217895508
85435.6015625 446899 6.62099981307983398
85435.6015625 446898 6.22399997711181641
85435.6015625 446899 6.42899990081787109
85435.3984375 446899 6.79400014877319336
85435.296875 446899 6.39900016784667969
85435.296875 446899 6.5840001106262207
85434.5 446899 6.30900001525878906
85434.5 446899 6.51900005340576172
85434.203125 446899 6.78599977493286133
85433.6015625 446898 6.04400014877319336
85433.6015625 446898 5.65399980545043945
85433.6015625 446898 5.84899997711181641
85433.296875 446899 6.47900009155273438
85432.796875 446899 6.41699981689453125
85432.796875 446899 6.22100019454956055
85432.203125 446898 5.39799976348876953
85431.8984375 446898 5.42500019073486328
85431.6015625 446898 5.78299999237060547
85431.6015625 446898 5.39599990844726562
85431.6015625 446898 5.59999990463256836
85431.296875 446903 6.22700023651123047
85435.6015625 446898 6.22399997711181641
85435.296875 446899 6.39900016784667969
85435.296875 446899 6.5840001106262207
85435 446899 6.75199985504150391
85434.1015625 446899 6.27600002288818359
85434.1015625 446899 6.59399986267089844
85434.1015625 446899 6.46999979019165039
85433.6015625 446898 6.04400014877319336
85433.6015625 446898 5.65399980545043945
85433.6015625 446898 5.84899997711181641
85433.296875 446899 6.47900009155273438
85432.1015625 446899 6.41300010681152344
85432.1015625 446899 6.2090001106262207
85431.6015625 446898 5.78299999237060547
85431.6015625 446898 5.39599990844726562
85431.6015625 446898 5.59999990463256836
85431.296875 446899 6.17299985885620117
85431.296875 446899 5.96700000762939453
85431.296875 446898 5.78700017929077148
85431 446899 6.39400005340576172
85431 446899 6.18699979782104492
85437.3984375 446897 5.64499998092651367
85437.1015625 446895 2.49099993705749512
85437.1015625 446895 2.48200011253356934
85437.3984375 446897 5.42999982833862305
85437.296875 446897 5.24399995803833008
85437.1015625 446895 2.47499990463256836
85436.6015625 446897 5.75799989700317383
85436.203125 446895 2.48200011253356934
85436.203125 446895 2.4849998950958252
85435.8984375 446895 2.48099994659423828
85435.8984375 446895 2.50200009346008301
85436 446897 2.51799988746643066
85435.5 446895 2.49600005149841309
85435.5 446895 2.49699997901916504
85435.703125 446897 5.27500009536743164
85435.6015625 446897 2.52300000190734863
85435.296875 446897 2.5130000114440918
85435.1015625 446895 2.51600003242492676
85435.1015625 446894 2.49699997901916504
85435.1015625 446894 2.49000000953674316
85435.3984375 446897 5.2369999885559082
85435.3984375 446897 5.42299985885620117
85434.796875 446895 2.51600003242492676
85434.796875 446895 2.53500008583068848
85434.796875 446894 2.50399994850158691
85434.703125 446897 5.12799978256225586
85434.703125 446897 5.32800006866455078
85434.296875 446897 5.31300020217895508
85434.296875 446897 5.50799989700317383
85434.296875 446897 5.12300014495849609
85433.3984375 446897 5.03000020980834961
85433.3984375 446897 2.6099998950958252
85432.6015625 446897 5.02199983596801758
85432.6015625 446897 5.21099996566772461
85437.1015625 446898 6.39300012588500977
85436.6015625 446898 5.95499992370605469
85433.6015625 446902 6.32499980926513672
85433.1015625 446902 6.38199996948242188
85433.1015625 446902 6.63600015640258789
85431.6015625 446902 6.67799997329711914
85431.703125 446903 5.91699981689453125
85431.6015625 446902 6.95699977874755859
85431.703125 446903 6.16499996185302734
85432 446902 6.42299985885620117
85432 446902 6.91300010681152344
85431.703125 446902 6.43400001525878906
85431.296875 446902 6.75099992752075195
85431.296875 446902 6.48600006103515625
85431.203125 446902 7.0130000114440918
85433.3984375 446900 7.30299997329711914
85433.3984375 446900 7.16400003433227539
85433 446900 7.24800014495849609
85422.203125 446914 0.254999995231628418
85422.203125 446914 6.87799978256225586
85418 446913 5.22800016403198242
85418 446913 5.01900005340576172
85421.8984375 446915 7.46500015258789062
85421.8984375 446915 7.21199989318847656
85421.6015625 446915 6.99800014495849609
85421.6015625 446915 7.21400022506713867
85420.8984375 446915 7.23600006103515625
85420.8984375 446915 5.20200014114379883
85420.796875 446915 5.20800018310546875
85420.6015625 446915 7.14599990844726562
85420.6015625 446915 6.95699977874755859
85419.796875 446915 6.82800006866455078
85419.796875 446915 6.45399999618530273
85419.796875 446915 6.66099977493286133
85420 446916 7.4590001106262207
85418.703125 446915 6.18699979782104492
85418.796875 446915 6.61499977111816406
85418.796875 446915 6.40100002288818359
85418.3984375 446917 7.17500019073486328
85418.3984375 446917 7.34899997711181641
85418 446913 5.22800016403198242
85418 446914 5.41400003433227539
85418 446913 5.01900005340576172
85418 446916 6.96999979019165039
85417.8984375 446915 6.39699983596801758
85417.8984375 446915 6.15500020980834961
85417.8984375 446915 5.98000001907348633
85418 446916 6.56699991226196289
85418.1015625 446917 7.15000009536743164
85418 446916 6.77099990844726562
85417.6015625 446915 5.96299982070922852
85417.6015625 446915 5.78700017929077148
85417.6015625 446915 6.20800018310546875
85417.3984375 446917 6.9310002326965332
85417 446913 3.56200003623962402
85417 446913 2.45399999618530273
85417 446913 4.67700004577636719
85417 446913 2.52300000190734863
85416.8984375 446915 5.72700023651123047
85417 446916 6.53700017929077148
85416.8984375 446915 5.94299983978271484
85416.796875 446915 5.58300018310546875
85417.203125 446917 7.33099985122680664
85417 446916 6.32100009918212891
85416.6015625 446915 5.91300010681152344
85416.3984375 446917 6.86899995803833008
85416 446914 4.71000003814697266
85416.3984375 446917 7.04400014877319336
85416 446914 2.95199990272521973
85416 446914 2.3059999942779541
85415.8984375 446915 5.88700008392333984
85415.796875 446915 5.34600019454956055
85416.1015625 446917 6.84000015258789062
85415.796875 446915 5.50500011444091797
85416 446916 6.45699977874755859
85415.796875 446915 5.73799991607666016
85416.1015625 446917 7.07299995422363281
85415.796875 446918 7.25899982452392578
85415.8984375 446918 7.27099990844726562
85415.6015625 446918 7.45699977874755859
85415.296875 446917 6.6939997673034668
85415.203125 446917 6.4720001220703125
85415.296875 446917 6.85900020599365234
85414.796875 446918 7.47599983215332031
85414.703125 446918 6.83300018310546875
85414.796875 446918 7.25600004196166992
85419.6015625 446913 5.47300004959106445
85419.6015625 446913 5.30499982833862305
85419.296875 446914 5.84100008010864258
85419.296875 446914 6.02199983596801758
85418.796875 446915 6.61499977111816406
85418.796875 446915 6.40100002288818359
85418.5 446916 6.57800006866455078
85422 446916 7.11399984359741211
85422 446916 7.31300020217895508
85421.703125 446914 6.23799991607666016
85421.6015625 446916 7.38299989700317383
85421.3984375 446913 7.86499977111816406
85421.3984375 446913 5.99599981307983398
85421.3984375 446913 5.84100008010864258
85421.203125 446915 5.22700023651123047
85421.203125 446915 6.82100009918212891
85420.8984375 446912 5.03100013732910156
85421 446913 5.78900003433227539
85421.203125 446915 7.01599979400634766
85420.8984375 446912 5.2220001220703125
85421.203125 446914 6.59200000762939453
85421 446913 5.58500003814697266
85420.6015625 446915 7.14599990844726562
85420.296875 446913 5.52299976348876953
85420.6015625 446915 6.95699977874755859
85420.296875 446913 5.31699991226196289
85420.3984375 446916 7.49100017547607422
85420.1015625 446914 6.30200004577636719
85420.1015625 446914 5.9310002326965332
85420.1015625 446914 6.07800006866455078
85420 446916 7.4590001106262207
85419.5 446916 7.20300006866455078
85419.5 446916 7.39099979400634766
85419.5 446916 7.01000022888183594
85419.1015625 446916 7.19700002670288086
85419.1015625 446916 6.9720001220703125
85419.1015625 446916 6.79799985885620117
85418.8984375 446916 6.99399995803833008
85418.8984375 446916 7.15799999237060547
85418.1015625 446913 2.53800010681152344
85421.5 446912 2.67400002479553223
85419 446915 6.22399997711181641
85419 446915 6.36999988555908203
85419 446915 6.60200023651123047
85418.703125 446915 6.18699979782104492
85414.796875 446918 7.47599983215332031
85414.796875 446918 7.07100009918212891
85414.796875 446918 7.25600004196166992
85422.6015625 446914 -0.272000014781951904
85422.3984375 446914 4.98299980163574219
85422.5 446914 6.96400022506713867
85422.3984375 446914 3.53900003433227539
85422.3984375 446914 5.83300018310546875
85422.3984375 446914 5.34299993515014648
85422.3984375 446914 6.7649998664855957
85422.3984375 446914 6.61499977111816406
85421.3984375 446912 0.637000024318695068
85421.3984375 446912 1.49699997901916504
85421.3984375 446912 -0.275999993085861206
85421.3984375 446912 2.08100008964538574
85421.3984375 446912 0.666999995708465576
85421.3984375 446912 7.88600015640258789
85421.703125 446912 1.90999996662139893
85421.703125 446912 1.47699999809265137
85421.703125 446912 7.97700023651123047
85404.6015625 446921 4.57999992370605469
85405 446922 6.42700004577636719
85406.703125 446917 4.71600008010864258
85406.703125 446917 2.56200003623962402
85406.6015625 446917 2.83699989318847656
85406.6015625 446917 2.56500005722045898
85405 446922 7.3060002326965332
85404.6015625 446921 6.74599981307983398
85404.6015625 446921 6.56400012969970703
85411.3984375 446916 2.09200000762939453
85411.3984375 446916 -0.00899999961256980896
85410.5 446919 6.94199991226196289
85410.5 446919 6.7630000114440918
85410 446919 6.70800018310546875
85410 446919 6.3340001106262207
85410 446919 6.55299997329711914
85409.5 446919 6.32700014114379883
85409.5 446919 6.11800003051757812
85409 446920 6.92899990081787109
85409 446920 6.78499984741210938
85409 446920 7.12699985504150391
85408.5 446920 6.98899984359741211
85408.5 446920 6.80100011825561523
85408 446919 6.04300022125244141
85408 446919 5.82700014114379883
85407.5 446920 6.63600015640258789
85407.5 446920 6.48600006103515625
85404.703125 446922 1.92100000381469727
85404.703125 446922 2.62199997901916504
85404.703125 446922 1.33500003814697266
85404.703125 446922 0.834999978542327881
85404.703125 446922 6.09499979019165039
85404.703125 446922 6.74599981307983398
85404.703125 446922 7.17899990081787109
85404.703125 446922 6.97499990463256836
85404.296875 446921 0.0740000009536743164
85405.296875 446923 4.75299978256225586
85405.296875 446923 3.7090001106262207
85405.296875 446923 4.11899995803833008
85405.296875 446923 2.85199999809265137
85406.3984375 446919 5.67700004577636719
85406.3984375 446919 5.51900005340576172
85406.3984375 446919 5.8600001335144043
85406.203125 446922 5.29699993133544922
85406.203125 446922 7.22100019454956055
85406.203125 446922 7.46000003814697266
85405.8984375 446923 7.27400016784667969
85405.703125 446921 6.47700023651123047
85405.6015625 446922 7.50099992752075195
85405.1015625 446921 6.34100008010864258
85405.1015625 446921 6.48799991607666016
85405.296875 446923 7.27299976348876953
85404.8984375 446921 6.7350001335144043
85404.6015625 446919 5.3340001106262207
85404.6015625 446919 5.17199993133544922
85404.6015625 446919 4.96999979019165039
85404.3984375 446919 5.3880000114440918
85404.1015625 446921 3.49799990653991699
85405.796875 446923 6.99599981307983398
85405.796875 446923 7.17799997329711914
85405.796875 446922 7.41499996185302734
85405.796875 446923 6.79400014877319336
85406.3984375 446924 5.92700004577636719
85406.703125 446922 7.48199987411499023
85406.3984375 446924 6.2909998893737793
85406.3984375 446924 6.49200010299682617
85406 446920 6.28700017929077148
85406 446920 6.03900003433227539
85406 446920 5.90000009536743164
85405.796875 446922 7.04400014877319336
85405.5 446918 5.1100001335144043
85413.703125 446919 7.24900007247924805
85413 446919 7.07299995422363281
85413 446919 7.44799995422363281
85413 446919 7.22100019454956055
85412.703125 446919 7.04300022125244141
85412.1015625 446919 6.92600011825561523
85411.8984375 446919 7.32200002670288086
85411.8984375 446919 7.15600013732910156
85411.296875 446919 6.78800010681152344
85411.296875 446919 6.99200010299682617
85411.296875 446919 7.18499994277954102
85410.8984375 446919 6.9439997673034668
85410.8984375 446919 6.78700017929077148
85409.703125 446920 7.19999980926513672
85409.703125 446920 7.35099983215332031
85409.203125 446920 6.76399993896484375
85409.203125 446919 6.52500009536743164
85409.203125 446919 6.31599998474121094
85408.703125 446920 6.5970001220703125
85408.703125 446919 6.36499977111816406
85408.703125 446920 6.75199985504150391
85408.203125 446920 6.80800008773803711
85407.703125 446919 6.03800010681152344
85407.703125 446919 5.87400007247924805
85411.796875 446916 5.0149998664855957
85408.8984375 446921 7.3470001220703125
85407.8984375 446921 7.24499988555908203
85407.8984375 446921 6.99499988555908203
85407.703125 446921 7.50899982452392578
85407.5 446921 6.89300012588500977
85412.5 446917 5.93200016021728516
85412.6015625 446917 6.09100008010864258
85412.6015625 446917 6.28800010681152344
85412.203125 446917 5.90700006484985352
85412.203125 446917 5.76100015640258789
85411.6015625 446917 5.77500009536743164
85411.6015625 446917 5.60200023651123047
85410.6015625 446917 5.41099977493286133
85410.6015625 446917 5.24900007247924805
85410.203125 446917 5.40000009536743164
85410.203125 446917 5.23999977111816406
85410.203125 446917 5.60300016403198242
85409.6015625 446917 0.090999998152256012
85409.203125 446917 0.180999994277954102
85409.203125 446917 0.372999995946884155
85408.6015625 446917 1.7070000171661377
85408.6015625 446917 0.634999990463256836
85408.6015625 446917 2.38499999046325684
85408.6015625 446917 5.03200006484985352
85408.6015625 446917 0.469000011682510376
85408.5 446917 5.26200008392333984
85395.203125 446933 5.35699987411499023
85394.703125 446933 2.56200003623962402
85394.703125 446933 2.57899999618530273
85392.3984375 446934 4.89099979400634766
85392.8984375 446934 4.95800018310546875
85393.203125 446934 4.99200010299682617
85394.203125 446934 5.73099994659423828
85394.703125 446934 5.7630000114440918
85394.8984375 446934 5.57299995422363281
85394.8984375 446934 5.79199981689453125
85394.203125 446934 5.41900014877319336
85394.203125 446934 5.26200008392333984
85394.203125 446934 5.64300012588500977
85393.8984375 446934 5.64300012588500977
85393.8984375 446934 5.40899991989135742
85393.3984375 446934 2.5
85392.703125 446934 5.28999996185302734
85392.703125 446934 5.07899999618530273
85392.203125 446934 5.25099992752075195
85392.203125 446934 5.08500003814697266
85392.203125 446934 4.82000017166137695
85391.296875 446938 7.38899993896484375
85391.296875 446938 7.44500017166137695
85391.6015625 446938 7.39799976348876953
85391.6015625 446938 7.39799976348876953
85391.6015625 446938 7.48000001907348633
85397.5 446935 7.39699983596801758
85397.5 446935 7.41099977493286133
85397.5 446935 7.39499998092651367
85398 446935 7.44299983978271484
85399 446935 7.20200014114379883
85398 446935 7.40000009536743164
85398 446935 7.42299985885620117
85395 446935 7.49499988555908203
85395 446935 7.41099977493286133
85395 446935 5.97900009155273438
85395 446935 6.23799991607666016
85391.3984375 446938 7.38500022888183594
85391.3984375 446938 7.47399997711181641
85391.3984375 446938 7.3880000114440918
85391.1015625 446938 7.47599983215332031
85391.1015625 446938 7.29600000381469727
85400.6015625 446937 2.04399991035461426
85400.6015625 446937 1.89300000667572021
85400.6015625 446937 1.95099997520446777
85399.703125 446936 3.74499988555908203
85399.703125 446936 2.66700005531311035
85399.703125 446936 4.82899999618530273
85399.703125 446936 2.42799997329711914
85400.1015625 446936 2.20199990272521973
85397.703125 446936 7.53700017929077148
85397.703125 446936 7.15999984741210938
85399.1015625 446936 6.87599992752075195
85399.1015625 446936 7.26200008392333984
85399.703125 446936 3.74499988555908203
85399.703125 446936 2.66700005531311035
85399.703125 446936 4.82899999618530273
85399.703125 446936 2.42799997329711914
85399.1015625 446936 6.95800018310546875
85399.1015625 446936 7.19899988174438477
85398.703125 446936 7.41300010681152344
85398.1015625 446936 7.50400018692016602
85398.1015625 446936 7.05499982833862305
85397.703125 446936 7.52899980545043945
85398.796875 446938 6.1119999885559082
85398.796875 446938 5.70200014114379883
85399.796875 446938 5.59800004959106445
85399.796875 446938 5.9869999885559082
85399.796875 446938 5.41300010681152344
85400.296875 446938 5.21199989318847656
85400.296875 446938 5.4439997673034668
85400.296875 446938 4.77400016784667969
85399.296875 446938 5.61800003051757812
85391.1015625 446938 6.90600013732910156
85392.1015625 446938 7.39300012588500977
85392.1015625 446938 7.47399997711181641
85392.3984375 446936 7.42100000381469727
85392.3984375 446936 7.38600015640258789
85393.1015625 446936 7.38600015640258789
85393.296875 446937 7.39099979400634766
85393.296875 446937 7.40700006484985352
85394.1015625 446936 7.02099990844726562
85394.1015625 446938 7.42299985885620117
85394.1015625 446938 7.01999998092651367
85394.1015625 446938 7.19099998474121094
85394.3984375 446936 6.52899980545043945
85394.6015625 446937 7.40999984741210938
85394.6015625 446937 7.25
85394.796875 446937 7.41300010681152344
85395.1015625 446937 7.36999988555908203
85395.1015625 446937 7.33599996566772461
85395.1015625 446937 7.19700002670288086
85395.1015625 446938 6.7779998779296875
85395.1015625 446938 6.6119999885559082
85395.1015625 446938 6.9869999885559082
85395.1015625 446936 7.44000005722045898
85395.3984375 446936 7.41200017929077148
85395.296875 446937 7.42700004577636719
85395.296875 446937 7.21899986267089844
85395.3984375 446936 7.39499998092651367
85396.1015625 446936 7.4310002326965332
85396.3984375 446936 7.43499994277954102
85396.3984375 446936 7.41099977493286133
85396.6015625 446937 7.19199991226196289
85396.6015625 446937 6.99300003051757812
85396.6015625 446937 7.40600013732910156
85396.796875 446937 7.21199989318847656
85396.796875 446937 6.99800014495849609
85396.796875 446937 6.82600021362304688
85399.1015625 446938 5.87799978256225586
85399.1015625 446938 6.06599998474121094
85399.1015625 446938 5.67199993133544922
85397.1015625 446938 6.48999977111816406
85397.1015625 446938 6.17999982833862305
85396.3984375 446936 7.40100002288818359
85396.3984375 446936 7.40100002288818359
85396.3984375 446936 7.54899978637695312
85396.1015625 446938 6.70599985122680664
85396.1015625 446938 6.50199985504150391
85395.3984375 446936 7.40600013732910156
85395.1015625 446936 7.41900014877319336
85395.296875 446937 7.47599983215332031
85395.296875 446937 7.23000001907348633
85395.1015625 446938 6.68599987030029297
85394.6015625 446937 7.49200010299682617
85394.3984375 446936 6.59100008010864258
85394.6015625 446937 7.34999990463256836
85394.1015625 446936 6.78299999237060547
85394.1015625 446936 6.59299993515014648
85393.3984375 446936 7.3880000114440918
85393.3984375 446936 7.39900016784667969
85393.1015625 446938 7.4159998893737793
85393.1015625 446938 7.39599990844726562
85392.3984375 446936 7.43800020217895508
85392.6015625 446937 7.38500022888183594
85392.3984375 446936 6.06199979782104492
85392.6015625 446937 7.38600015640258789
85391.1015625 446938 7.47599983215332031
85391.1015625 446938 7.29600000381469727
85391.296875 446938 7.38899993896484375
85391.296875 446938 7.44500017166137695
85392.203125 446936 7.40100002288818359
85392.203125 446936 7.46099996566772461
85392.203125 446936 7.41900014877319336
85392.3984375 446938 7.38600015640258789
85392.3984375 446938 7.46799993515014648
85392.3984375 446938 7.24800014495849609
85394.203125 446936 6.47599983215332031
85394.296875 446938 7.20599985122680664
85394.296875 446938 7.02899980545043945
85394.296875 446938 6.82100009918212891
85395.203125 446936 6.9590001106262207
85395.296875 446938 6.60500001907348633
85395.296875 446938 6.97900009155273438
85395.296875 446938 6.82999992370605469
85396.296875 446938 6.78499984741210938
85396.296875 446938 6.66499996185302734
85396.296875 446938 6.39200019836425781
85399.296875 446938 5.61800003051757812
85398.296875 446938 5.99399995803833008
85395.296875 446938 6.92600011825561523
85395.203125 446936 7.44799995422363281
85395.3984375 446938 6.67600011825561523
85395.203125 446936 7.2779998779296875
85394.296875 446938 6.91699981689453125
85394.296875 446938 7.125
85392.296875 446938 7.41800022125244141
85391.3984375 446938 7.38500022888183594
85391.3984375 446938 7.47399997711181641
85391.3984375 446938 7.3880000114440918
85397.5 446935 7.39699983596801758
85397.5 446935 7.41099977493286133
85397.5 446935 7.39499998092651367
85398 446935 7.44299983978271484
85399 446935 7.46999979019165039
85399 446935 7.20200014114379883
85399 446935 7.3880000114440918
85398 446935 7.40000009536743164
85398 446935 7.42299985885620117
85395 446935 7.49499988555908203
85395 446935 7.41099977493286133
85395 446935 6.23799991607666016
85394 446935 6.21000003814697266
85394 446935 5.99200010299682617
85391.5 446935 5.64300012588500977
85391.5 446935 5.48400020599365234
85394.5 446933 4.99700021743774414
85395.796875 446932 2.58100008964538574
85395.796875 446932 2.5820000171661377
85394.5 446933 5.21500015258789062
85394.5 446933 5.05999994277954102
85393.8984375 446934 5.64300012588500977
85393.8984375 446934 5.40899991989135742
85393.5 446933 5.05399990081787109
85394.1015625 446933 5.03700017929077148
85395.1015625 446933 5.05900001525878906
85395.8984375 446932 5.03299999237060547
85396.296875 446932 5.02500009536743164
85396.6015625 446932 5.07999992370605469
85396.796875 446932 5.04199981689453125
85398.1015625 446933 7.72100019454956055
85398.1015625 446933 7.04400014877319336
85398.1015625 446933 6.0970001220703125
85398.1015625 446933 7.96600008010864258
85397.296875 446932 5.1399998664855957
85396.796875 446932 2.56699991226196289
85396.796875 446932 2.57500004768371582
85396.8984375 446932 4.98600006103515625
85396.796875 446932 4.73799991607666016
85396.796875 446932 2.57999992370605469
85396.8984375 446932 5.14400005340576172
85396.5 446932 4.98999977111816406
85396.296875 446932 2.5820000171661377
85396.1015625 446933 5.56500005722045898
85396 446932 4.98099994659423828
85395.8984375 446932 4.72499990463256836
85395.5 446933 5.34100008010864258
85395.5 446933 4.94899988174438477
85395.296875 446932 2.59299993515014648
85395.5 446933 5.17399978637695312
85395.203125 446933 5.35699987411499023
85395.1015625 446933 5.2090001106262207
85394.8984375 446932 2.53399991989135742
85394.8984375 446932 2.58500003814697266
85395.1015625 446933 4.97800016403198242
85394.1015625 446933 4.7369999885559082
85394.1015625 446933 2.57299995422363281
85394.1015625 446933 5.05999994277954102
85395.3984375 446934 7.43900012969970703
85395.796875 446934 7.43900012969970703
85395.296875 446934 7.49200010299682617
85395.296875 446934 5.94000005722045898
85390.6015625 446936 7.44600009918212891
85392.6015625 446934 2.40199995040893555
85392.6015625 446934 0.303000003099441528
85391.703125 446934 2.39800000190734863
85392.3984375 446934 4.89099979400634766
85392.6015625 446934 4.93200016021728516
85392.8984375 446934 4.95800018310546875
85393.203125 446934 4.99200010299682617
85393.796875 446934 5.38700008392333984
85394 446934 5.35799980163574219
85394.203125 446934 5.73099994659423828
85394.296875 446934 5.41800022125244141
85394.5 446934 5.73999977111816406
85394.5 446934 5.43599987030029297
85394.703125 446934 5.7630000114440918
85394.8984375 446934 5.42399978637695312
85394.8984375 446934 5.57299995422363281
85394.8984375 446934 5.79199981689453125
85394.6015625 446934 5.61399984359741211
85394.6015625 446934 5.80800008773803711
85394.6015625 446934 5.43499994277954102
85394.203125 446934 5.41900014877319336
85394.203125 446934 5.26200008392333984
85394.203125 446934 5.64300012588500977
85393.8984375 446934 5.64300012588500977
85393.796875 446934 5.25699996948242188
85393.8984375 446934 5.40899991989135742
85393.5 446934 5.27500009536743164
85393.3984375 446934 2.5
85393.5 446934 5.05999994277954102
85393.5 446934 5.45300006866455078
85393.1015625 446934 5.29199981689453125
85393 446934 4.89499998092651367
85393.1015625 446934 5.07200002670288086
85393 446934 2.40000009536743164
85392.6015625 446934 4.86299991607666016
85392.5 446934 -0.200000002980232239
85392.6015625 446934 2.40199995040893555
85392.703125 446934 5.07899999618530273
85392.6015625 446934 0.303000003099441528
85392.796875 446935 7.45399999618530273
85393.296875 446935 7.4720001220703125
85395.796875 446935 7.40600013732910156
85397.796875 446935 7.40399980545043945
85397.796875 446935 7.41800022125244141
85397.296875 446935 7.39799976348876953
85396.796875 446935 7.39599990844726562
85396.796875 446935 7.42500019073486328
85396.296875 446935 7.41499996185302734
85396.296875 446935 7.40899991989135742
85395.796875 446935 7.40500020980834961
85395.796875 446935 7.40000009536743164
85395.296875 446935 7.42100000381469727
85395.296875 446935 6.25199985504150391
85394.796875 446935 7.4850001335144043
85394.296875 446935 5.99599981307983398
85394.296875 446935 5.78200006484985352
85393.296875 446935 6.0130000114440918
85393.296875 446935 7.45599985122680664
85392.796875 446935 5.64499998092651367
85392.796875 446935 5.82600021362304688
85392.796875 446935 6.01700019836425781
85392.296875 446935 5.43900012969970703
85392.296875 446935 5.66499996185302734
85394.8984375 446937 7.32100009918212891
85394.8984375 446937 7.50500011444091797
85394.8984375 446937 7.36600017547607422
85394.8984375 446937 7.23099994659423828
85393 446940 6.44099998474121094
85393 446940 6.25699996948242188
85393 446940 6.06500005722045898
85394.1015625 446938 7.42299985885620117
85394 446939 6.84299993515014648
85394 446939 6.43300008773803711
85394.1015625 446938 7.01999998092651367
85394 446939 6.625
85394.1015625 446938 7.19099998474121094
85394.296875 446939 6.44600009918212891
85394.296875 446939 6.62200021743774414
85394.796875 446938 7.02699995040893555
85394.796875 446938 7.19500017166137695
85394.796875 446937 7.41300010681152344
85394.796875 446938 6.82399988174438477
85395.1015625 446937 7.36999988555908203
85395.1015625 446937 7.33599996566772461
85395.1015625 446937 7.19700002670288086
85395.1015625 446938 6.7779998779296875
85395.1015625 446938 6.9869999885559082
85396.5 446937 7.28100013732910156
85396.5 446937 6.9720001220703125
85394.703125 446939 6.65999984741210938
85394.5 446937 7.22300004959106445
85394.3984375 446939 6.63000011444091797
85394 446939 6.61100006103515625
85393.703125 446940 6.09100008010864258
85393.6015625 446939 6.89400005340576172
85393.703125 446939 6.57899999618530273
85393.703125 446939 6.35099983215332031
85393.296875 446940 6.10599994659423828
85393.296875 446940 5.82399988174438477
85393.296875 446940 6.36999988555908203
85392.3984375 446937 7.3899998664855957
85392.3984375 446937 7.39400005340576172
85392.703125 446937 7.39699983596801758
85392.703125 446937 7.37300014495849609
85393 446937 7.40700006484985352
85393 446937 7.3880000114440918
85393 446937 7.39900016784667969
85393.296875 446937 7.39099979400634766
85393.296875 446937 7.40700006484985352
85393.6015625 446937 7.40700006484985352
85393.6015625 446937 7.39699983596801758
85394.296875 446937 7.22900009155273438
85394.6015625 446937 7.25
85393.3984375 446937 7.40000009536743164
85393 446937 7.40899991989135742
85393 446937 7.39099979400634766
85393 446937 7.38700008392333984
85392.6015625 446937 7.38500022888183594
85392.6015625 446937 7.38600015640258789
85385 446938 5.83900022506713867
85383.6015625 446938 5.20699977874755859
85384.6015625 446938 5.73999977111816406
85383.6015625 446938 2.67400002479553223
85383.6015625 446938 5.20599985122680664
85383.6015625 446938 5.02099990844726562
85383.296875 446939 5.65000009536743164
85382.296875 446939 5.76000022888183594
85382.296875 446939 5.51800012588500977
85381.296875 446939 2.62199997901916504
85387.796875 446938 7.41499996185302734
85387.796875 446938 7.45699977874755859
85388.1015625 446938 7.45100021362304688
85388.1015625 446938 7.46700000762939453
85388.203125 446938 7.3880000114440918
85388.8984375 446938 7.47900009155273438
85389.203125 446938 6.94299983978271484
85389.1015625 446938 6.57600021362304688
85389.1015625 446938 6.74599981307983398
85388.203125 446938 7.4869999885559082
85388.203125 446938 7.45599985122680664
85388.203125 446938 7.42199993133544922
85388.1015625 446938 6.22399997711181641
85387.796875 446938 7.42899990081787109
85387.796875 446938 7.43900012969970703
85382.203125 446941 7.00699996948242188
85382.203125 446941 7.48400020599365234
85385.796875 446938 5.70800018310546875
85386.5 446937 5.25699996948242188
85386.796875 446937 5.27500009536743164
85386.796875 446937 0.81099998950958252
85386.5 446937 1.27600002288818359
85385.5 446938 5.72100019454956055
85385.5 446938 5.50299978256225586
85382.5 446941 7.4720001220703125
85382.5 446941 7.48999977111816406
85381.6015625 446941 6.56799983978271484
85381.6015625 446941 6.35200023651123047
85386.1015625 446938 7.41400003433227539
85387.5 446938 7.43200016021728516
85387.5 446938 7.44799995422363281
85381.6015625 446942 7.56500005722045898
85381.6015625 446939 5.69500017166137695
85383 446938 4.84000015258789062
85387.5 446936 4.82399988174438477
85387.5 446936 5.20399999618530273
85387.5 446936 1.8760000467300415
85387.5 446936 5.20499992370605469
85387.5 446936 4.74300003051757812
85384 446938 2.63100004196166992
85381.8984375 446939 5.77400016784667969
85380.8984375 446939 5.00799989700317383
85380.8984375 446939 2.64100003242492676
85380.6015625 446940 8.02099990844726562
85380.6015625 446940 7.99700021743774414
85380.796875 446940 6.02099990844726562
85380.796875 446940 6.41200017929077148
85380.796875 446940 7.16499996185302734
85381.3984375 446940 5.83799982070922852
85381.296875 446940 6.19999980926513672
85381.796875 446940 6.37400007247924805
85382 446940 7.43699979782104492
85382 446940 6.35500001907348633
85382 446940 7.41400003433227539
85382.296875 446940 7.46199989318847656
85382.203125 446940 7.48299980163574219
85382.5 446940 7.46700000762939453
85382.5 446940 7.5
85382.3984375 446940 7.46999979019165039
85382.703125 446940 7.45699977874755859
85382.703125 446940 7.45300006866455078
85383.796875 446938 5.12799978256225586
85384 446938 2.63100004196166992
85383.6015625 446938 2.67400002479553223
85383.6015625 446938 5.02099990844726562
85383.703125 446938 5.61499977111816406
85383.296875 446938 5.43300008773803711
85382.5 446940 7.46299982070922852
85382.3984375 446940 7.43200016021728516
85382.296875 446940 5.93400001525878906
85382.1015625 446940 7.48400020599365234
85382 446940 7.44500017166137695
85381.8984375 446940 5.93200016021728516
85381.6015625 446940 6.18800020217895508
85381.5 446940 5.75899982452392578
85381.203125 446940 6.21199989318847656
85381.1015625 446940 5.76800012588500977
85381 446940 5.62599992752075195
85381.1015625 446941 6.35200023651123047
85381.296875 446941 6.56300020217895508
85381.5 446941 6.48999977111816406
85381.5 446941 6.84299993515014648
85382 446941 6.67700004577636719
85381.6015625 446941 6.56799983978271484
85381.6015625 446941 6.35200023651123047
85381.296875 446941 6.76599979400634766
85381.203125 446941 6.60400009155273438
85381.203125 446941 6.37099981307983398
85381.296875 446941 6.56300020217895508
85383.203125 446937 4.72300004959106445
85382.703125 446937 2.61899995803833008
85382.703125 446937 2.63499999046325684
85381.296875 446941 6.76599979400634766
85382.296875 446941 6.69999980926513672
85382.703125 446941 7.4850001335144043
85382.703125 446941 7.48899984359741211
85382.703125 446942 7.52500009536743164
85382.703125 446942 7.62799978256225586
85382.703125 446942 7.43400001525878906
85383.203125 446941 7.48299980163574219
85382.703125 446942 7.47399997711181641
85382.796875 446943 6.95399999618530273
85381.796875 446942 7.53399991989135742
85381.796875 446942 7.13600015640258789
85381.796875 446942 7.32899999618530273
85381.203125 446941 6.60400009155273438
85381.203125 446941 6.37099981307983398
