ply
format ascii 1.0
element vertex 135
property double x
property double y
property double z
end_header
85380.1999999999971 446940 8.15300000000000047
85380.1999999999971 446940 8.00300000000000011
85380.5 446940 8.05300000000000082
85382.8000000000029 446939 7.53200000000000003
85383.3999999999942 446939 7.43100000000000005
85383.6000000000058 446939 7.45300000000000029
85383.8999999999942 446939 7.49800000000000022
85384.1000000000058 446939 7.51999999999999957
85384.1000000000058 446939 7.4610000000000003
85386 446938 7.4870000000000001
85386.3000000000029 446938 7.41300000000000026
85386.3000000000029 446938 7.49500000000000011
85388.3999999999942 446937 7.4009999999999998
85389 446936 8.26800000000000068
85389 446937 7.68799999999999972
85389.3000000000029 446936 8.3230000000000004
85390.6000000000058 446936 7.44599999999999973
85390.8999999999942 446936 7.42999999999999972
85391.1000000000058 446936 7.45999999999999996
85391.3999999999942 446936 7.45600000000000041
85391.3999999999942 446936 7.38600000000000012
85392.8000000000029 446935 7.45399999999999974
85393.1000000000058 446935 7.43700000000000028
85393.3000000000029 446935 7.47200000000000042
85394.6000000000058 446935 7.47200000000000042
85394.8999999999942 446935 7.42900000000000027
85394.8999999999942 446935 7.43200000000000038
85395.1999999999971 446935 7.41800000000000015
85395.1999999999971 446935 7.43200000000000038
85395.1999999999971 446935 7.41999999999999993
85395.3999999999942 446934 7.43900000000000006
85395.8000000000029 446934 7.43900000000000006
85395.8999999999942 446932 5.03300000000000036
85396.3000000000029 446932 5.02500000000000036
85396.1000000000058 446934 7.41800000000000015
85396.3999999999942 446934 7.41600000000000037
85396.6000000000058 446932 5.08000000000000007
85397.5 446934 7.43900000000000006
85397.8000000000029 446934 7.47499999999999964
85397.8000000000029 446932 7.91000000000000014
85397.8000000000029 446932 7.91099999999999959
85398.1000000000058 446932 7.90599999999999969
85398.1000000000058 446932 7.9740000000000002
85398.3000000000029 446932 7.94399999999999995
85398.3000000000029 446932 7.9269999999999996
85448.5 446895 5.04800000000000004
85448.1000000000058 446895 5.04000000000000004
85447.8999999999942 446894 3.45800000000000018
85447.6999999999971 446895 4.98599999999999977
85447.6000000000058 446894 3.41400000000000015
85447.5 446894 3.36399999999999988
85447.3999999999942 446895 4.98599999999999977
85447.1000000000058 446895 4.93400000000000016
85446.6999999999971 446895 4.95000000000000018
85446.3999999999942 446895 4.90500000000000025
85446 446895 4.875
85445.6000000000058 446895 4.89599999999999991
85440.5 446897 7.89200000000000035
85440.5 446897 7.89499999999999957
85440.5 446897 7.88400000000000034
85440.1000000000058 446897 7.9009999999999998
85440.1000000000058 446897 7.89700000000000024
85440.1999999999971 446897 7.90200000000000014
85439.3000000000029 446896 5.07599999999999962
85438.8999999999942 446896 5.03800000000000026
85438.6000000000058 446896 5.02899999999999991
85438.3000000000029 446896 4.95399999999999974
85437.8000000000029 446896 5.09999999999999964
85436.1000000000058 446896 5.10799999999999965
85435.6999999999971 446896 5.04399999999999959
85435.3999999999942 446896 4.98899999999999988
85434.8999999999942 446896 3.48099999999999987
85435 446896 3.47299999999999986
85435 446896 3.45800000000000018
85434.5 446896 3.49800000000000022
85432.8999999999942 446896 3.51600000000000001
85432.3999999999942 446896 3.51399999999999979
85432 446896 3.50300000000000011
85430.8999999999942 446898 7.90500000000000025
85430.8999999999942 446898 7.81500000000000039
85430.5 446898 7.88600000000000012
85430.6000000000058 446898 7.8230000000000004
85422 446913 7.86099999999999977
85422 446912 7.86500000000000021
85421.6999999999971 446913 7.87300000000000022
85421.6000000000058 446912 7.85500000000000043
85421.6999999999971 446912 7.97700000000000031
85421.3999999999942 446913 7.86500000000000021
85421.3999999999942 446912 7.88600000000000012
85413.1000000000058 446916 7.89499999999999957
85413.1000000000058 446916 7.83800000000000008
85412.8000000000029 446916 7.92999999999999972
85412.6999999999971 446916 7.92900000000000027
85412.6999999999971 446916 7.94700000000000006
85412.5 446916 7.84700000000000042
85412.5 446916 7.88199999999999967
85412.5 446916 7.91500000000000004
85412.1999999999971 446916 7.86000000000000032
85398.1000000000058 446932 7.9870000000000001
85397.6999999999971 446932 7.90000000000000036
85397.5 446934 7.48599999999999977
85397.5 446934 7.45600000000000041
85397.6000000000058 446934 7.39700000000000024
85396.8999999999942 446932 5.14400000000000013
85396.1999999999971 446934 7.48599999999999977
85396 446932 4.98099999999999987
85396.1999999999971 446934 7.41999999999999993
85395.6999999999971 446934 7.4740000000000002
85395.3000000000029 446934 7.49199999999999999
85395.3000000000029 446935 7.42100000000000026
85395 446935 7.49500000000000011
85395.1000000000058 446935 7.41199999999999992
85395 446935 7.41099999999999959
85394.6999999999971 446935 7.49500000000000011
85394.6999999999971 446935 7.5
85394.8000000000029 446935 7.48500000000000032
85393.3000000000029 446935 7.45600000000000041
85391.6000000000058 446936 7.39100000000000001
85391.6000000000058 446936 7.4269999999999996
85391.1999999999971 446936 7.40299999999999958
85390.8999999999942 446936 7.39700000000000024
85388.8999999999942 446936 8.26200000000000045
85388.1000000000058 446937 7.48800000000000043
85387.6999999999971 446937 7.47499999999999964
85386.3999999999942 446938 7.40800000000000036
85386.1000000000058 446938 7.4139999999999997
85384.1999999999971 446939 7.47799999999999976
85383.8999999999942 446939 7.44200000000000017
85383.8000000000029 446939 7.5129999999999999
85383.5 446939 7.51900000000000013
85383.1000000000058 446939 7.5129999999999999
85380.6000000000058 446940 8.0210000000000008
85380.6000000000058 446940 7.99699999999999989
85380 446940 8.03100000000000058
85380.1000000000058 446940 8.00200000000000067
