ply
format ascii 1.0
element vertex 37
property double x
property double y
property double z
end_header
159141.924988000013 384389.335022000014 26.1660000000000004
159138.950011999987 384398.213989000011 23.8709999999999987
159139.036986999999 384398.330016999971 23.8619999999999983
159139.234009000007 384397.867980999989 23.8740009999999998
159141.557006999996 384399.325011999987 23.8299999999999983
159141.796020999987 384398.862976000004 23.8270000000000017
159141.812987999991 384399.012023999996 23.8610000000000007
159141.854003999993 384398.836974999984 23.8069990000000011
159142.088989000011 384389.093993999995 26.1460000000000008
159142.104980000004 384389.01800500002 26.1790009999999995
159143.625976999989 384391.070983999991 23.9990009999999998
159143.713013000001 384390.552001999982 23.9190010000000015
159143.838013000001 384391.864013999992 24.0629999999999988
159143.906981999986 384389.732971000019 23.9529989999999984
159144.046020999987 384391.999023000011 23.9260009999999994
159144.091003000009 384389.677978999971 24.0130000000000017
159144.127013999998 384391.145019999996 23.9579999999999984
159144.140990999993 384390.260986000008 24.0020009999999999
159144.161010999989 384390.419983000029 23.9800000000000004
159144.169983 384391.617980999989 24.0180000000000007
159144.302979 384391.684997999982 24.0040000000000013
159144.429016000009 384389.835022000014 24.0339999999999989
159144.434998000012 384390.083984000026 23.9830000000000005
159144.588989000011 384396.479980000004 27.4089999999999989
159144.648986999993 384396.353026999976 27.3449990000000014
159144.666992000013 384396.521973000024 27.3880000000000017
159144.677002000011 384392.184997999982 23.9529989999999984
159144.934020999994 384391.870972000004 24.0009990000000002
159144.958007999987 384392.090026999998 23.938998999999999
159144.989990000002 384396.208007999987 27.4220010000000016
159145.033020000003 384396.231017999991 27.4050009999999986
159145.172973999986 384392.159973000002 24.0259989999999988
159145.382019000011 384392.48199499998 23.9699990000000014
159145.437987999991 384391.838989000011 23.9510000000000005
159145.630980999995 384392.177978999971 24.0009990000000002
159145.633972000011 384392.432007000025 23.9140000000000015
159145.843018000014 384393.195007000002 23.9839990000000007
